<svg xmlns="http://www.w3.org/2000/svg" version="1.1" xmlns:xlink="http://www.w3.org/1999/xlink" xmlns:svgjs="http://svgjs.dev/svgjs" width="24" height="30"><svg xmlns="http://www.w3.org/2000/svg" data-name="Layer 1" viewBox="0 0 24 30" x="0px" y="0px"><title>Artboard 55</title><circle cx="12" cy="9" r="3"></circle><path d="M14.3,13.74A2.15,2.15,0,0,0,12.67,13H11.33A2.15,2.15,0,0,0,9.2,15.46l.67,4.69a2.15,2.15,0,0,0,4.26,0l.67-4.69A2.15,2.15,0,0,0,14.3,13.74Z"></path><path d="M15.54,13.54a1,1,0,0,1-.71-1.7,4,4,0,0,0,0-5.67,1,1,0,0,1,1.42-1.41,6,6,0,0,1,0,8.49A1,1,0,0,1,15.54,13.54Z"></path><path d="M8.46,13.54a1,1,0,0,1-.71-.3,6,6,0,0,1,0-8.49A1,1,0,1,1,9.17,6.16a4,4,0,0,0,0,5.67,1,1,0,0,1-.71,1.7Z"></path><path d="M17.66,15.66A1,1,0,0,1,17,14,7,7,0,0,0,17,4a1,1,0,1,1,1.42-1.41,9,9,0,0,1,0,12.73A1,1,0,0,1,17.66,15.66Z"></path><path d="M6.34,15.66a1,1,0,0,1-.71-.29,9,9,0,0,1,0-12.73A1,1,0,1,1,7,4,7,7,0,0,0,7,14a1,1,0,0,1-.71,1.71Z"></path><text x="0" y="39" fill="#000000" font-size="5px" font-weight="bold" font-family="'Helvetica Neue', Helvetica, Arial-Unicode, Arial, Sans-serif" svgjs:data="{&quot;leading&quot;:&quot;1.3&quot;}">Created by Yoyon Pujiyono</text><text x="0" y="44" fill="#000000" font-size="5px" font-weight="bold" font-family="'Helvetica Neue', Helvetica, Arial-Unicode, Arial, Sans-serif" svgjs:data="{&quot;leading&quot;:&quot;1.3&quot;}">from the Noun Project</text></svg><style>@media (prefers-color-scheme: light) { :root { filter: none; } }
@media (prefers-color-scheme: dark) { :root { filter: invert(100%); } }
</style></svg>